<svg width="19" height="19" viewBox="0 0 19 19" fill="none" xmlns="http://www.w3.org/2000/svg">
<path fill-rule="evenodd" clip-rule="evenodd" d="M18.6512 16.9669C19.1163 17.432 19.1163 18.1861 18.6512 18.6512C18.1861 19.1163 17.432 19.1163 16.9669 18.6512L9.50001 11.1843L2.0331 18.6512C1.568 19.1163 0.813923 19.1163 0.348824 18.6512C-0.116275 18.1861 -0.116275 17.432 0.348824 16.9669L7.81574 9.5L0.348831 2.0331C-0.116268 1.568 -0.116267 0.813923 0.348831 0.348824C0.81393 -0.116275 1.56801 -0.116274 2.0331 0.348824L9.50001 7.81573L16.9669 0.348825C17.432 -0.116274 18.1861 -0.116275 18.6512 0.348824C19.1163 0.813923 19.1163 1.568 18.6512 2.0331L11.1843 9.5L18.6512 16.9669Z" fill="#525862"/>
</svg>
