<svg width="31" height="31" viewBox="0 0 31 31" fill="none" xmlns="http://www.w3.org/2000/svg">
<path d="M15.4046 30.48C23.8175 30.48 30.6374 23.6568 30.6374 15.24C30.6374 6.82318 23.8175 0 15.4046 0C6.99182 0 0.171875 6.82318 0.171875 15.24C0.171875 23.6568 6.99182 30.48 15.4046 30.48Z" fill="#525862"/>
<path d="M5.84495 15.9856C7.62566 15.0043 9.61341 14.1852 11.4707 13.362C14.6659 12.0137 17.8738 10.6887 21.114 9.45513C21.7444 9.24494 22.8772 9.03946 22.9883 9.97418C22.9275 11.2973 22.6773 12.6126 22.5057 13.9279C22.0701 16.8205 21.5666 19.7031 21.0757 22.5862C20.9065 23.5464 19.7041 24.0436 18.9347 23.4291C17.0857 22.1795 15.2225 20.9422 13.3971 19.6636C12.7991 19.0557 13.3537 18.1828 13.8876 17.7487C15.4105 16.2471 17.0256 14.9715 18.4689 13.3924C19.2129 12.3953 17.7485 13.1977 17.3284 13.4874C15.2436 14.9248 13.2097 16.4499 11.0117 17.7132C9.88887 18.3315 8.58025 17.8031 7.45798 17.458C6.45172 17.0412 4.97719 16.6212 5.84483 15.9857L5.84495 15.9856Z" fill="#F5F3ED"/>
</svg>
