<svg width="30" height="31" viewBox="0 0 30 31" fill="none" xmlns="http://www.w3.org/2000/svg">
<path d="M0.380859 29.9454L2.43245 22.4521C1.16677 20.2593 0.501183 17.771 0.501944 15.2224C0.505752 7.24906 6.99103 0.762207 14.9613 0.762207C18.8292 0.763731 22.4587 2.27002 25.1888 5.00297C27.9182 7.73668 29.4214 11.3694 29.4199 15.2338C29.4169 23.2072 22.9301 29.6948 14.9613 29.6948C14.9606 29.6948 14.9613 29.6948 14.9613 29.6948H14.9552C12.5358 29.694 10.1575 29.0868 8.04576 27.934L0.380859 29.9454Z" fill="#525862"/>
<path d="M0.380439 30.326C0.279915 30.326 0.182438 30.2864 0.110091 30.2132C0.014898 30.1165 -0.0224175 29.9755 0.013375 29.8452L2.02309 22.5035C0.777203 20.2894 0.119991 17.7751 0.121514 15.2228C0.12456 7.03838 6.78121 0.380859 14.9609 0.380859C18.9286 0.382383 22.6563 1.92829 25.4581 4.73362C28.2598 7.53972 29.8019 11.2685 29.8004 15.2334C29.7973 23.417 23.1399 30.0753 14.9609 30.0753C12.5324 30.0746 10.1297 29.475 7.9974 28.3405L0.477155 30.313C0.44517 30.3222 0.413185 30.326 0.380439 30.326Z" fill="#525862"/>
<path d="M23.4614 6.72916C21.192 4.45716 18.1755 3.20535 14.9649 3.20459C8.33639 3.20459 2.94543 8.59583 2.94238 15.2229C2.94162 17.4941 3.57675 19.7052 4.77999 21.6198L5.06633 22.0747L3.85167 26.5097L8.40036 25.3166L8.83977 25.5772C10.6842 26.6728 12.7998 27.2518 14.9565 27.2526H14.9611C21.585 27.2526 26.9759 21.8606 26.9782 15.2328C26.979 12.0214 25.7308 9.00116 23.4614 6.72916Z" fill="white"/>
<path fill-rule="evenodd" clip-rule="evenodd" d="M11.3462 9.1771C11.0758 8.5752 10.791 8.56301 10.5328 8.55234C10.3219 8.5432 10.0812 8.54396 9.84058 8.54396C9.59993 8.54396 9.2085 8.63463 8.87723 8.99653C8.54596 9.35844 7.6123 10.2323 7.6123 12.0106C7.6123 13.7889 8.90693 15.5078 9.08741 15.7485C9.2679 15.9893 11.5868 19.7554 15.259 21.2045C18.3105 22.4083 18.9319 22.1691 19.5944 22.1089C20.257 22.0487 21.7321 21.235 22.0329 20.3908C22.3337 19.5466 22.3337 18.8236 22.2438 18.6727C22.1532 18.5219 21.9126 18.432 21.5516 18.2506C21.1906 18.0693 19.4139 17.1954 19.0827 17.075C18.7514 16.9546 18.5107 16.8944 18.2693 17.2563C18.0287 17.6175 17.3365 18.432 17.1255 18.6727C16.9146 18.9142 16.7036 18.9447 16.3426 18.7634C15.9817 18.5821 14.818 18.2011 13.4373 16.9699C12.3636 16.0122 11.6386 14.8289 11.4276 14.467C11.2167 14.1059 11.4048 13.9101 11.586 13.7295C11.7482 13.5672 11.947 13.3074 12.1283 13.0963C12.3087 12.8853 12.3689 12.7344 12.4892 12.4937C12.6096 12.2522 12.5494 12.0411 12.4588 11.8605C12.3697 11.6792 11.6675 9.89177 11.3462 9.1771Z" fill="#525862"/>
</svg>
