<svg width="30" height="31" viewBox="0 0 30 31" fill="none" xmlns="http://www.w3.org/2000/svg">
<circle cx="15" cy="15.6815" r="14" stroke="#525862" stroke-width="2"/>
<path d="M22.5 16.6815C23.0523 16.6815 23.5 16.2338 23.5 15.6815C23.5 15.1292 23.0523 14.6815 22.5 14.6815L22.5 16.6815ZM7.29289 14.9744C6.90237 15.3649 6.90237 15.9981 7.29289 16.3886L13.6569 22.7526C14.0474 23.1431 14.6805 23.1431 15.0711 22.7526C15.4616 22.3621 15.4616 21.7289 15.0711 21.3384L9.41421 15.6815L15.0711 10.0247C15.4616 9.63414 15.4616 9.00097 15.0711 8.61045C14.6805 8.21993 14.0474 8.21993 13.6569 8.61045L7.29289 14.9744ZM22.5 14.6815L8 14.6815L8 16.6815L22.5 16.6815L22.5 14.6815Z" fill="#525862"/>
</svg>
