<svg width="144" height="32" viewBox="0 0 144 32" fill="none" xmlns="http://www.w3.org/2000/svg">
<rect x="0.969434" y="0.901075" width="142.13" height="30.1979" rx="15.0989" stroke="#525862" stroke-width="1.80215"/>
<path d="M27.3595 21.2595C25.764 21.2595 24.5242 20.7645 23.6399 19.7745L24.8654 18.5491C25.4709 19.3276 26.2734 19.7169 27.273 19.7169C27.8305 19.7169 28.3159 19.5679 28.7292 19.2699C29.1425 18.9624 29.3491 18.5491 29.3491 18.0301C29.3491 17.0112 28.5514 16.5018 26.9559 16.5018H26.235V14.9736H26.9847C28.3784 14.9736 29.0752 14.469 29.0752 13.4598C29.0752 13.0465 28.8926 12.7101 28.5273 12.4506C28.1717 12.1815 27.7584 12.0469 27.2874 12.0469C26.384 12.0469 25.6727 12.3689 25.1537 13.0129L24.0147 11.8883C24.8125 10.9849 25.937 10.5331 27.3884 10.5331C28.4456 10.5331 29.2914 10.7782 29.9258 11.2684C30.5602 11.749 30.8773 12.417 30.8773 13.2724C30.8773 13.8683 30.7139 14.3729 30.3871 14.7862C30.0604 15.1995 29.6375 15.4734 29.1184 15.608V15.6512C29.7336 15.7954 30.2382 16.0837 30.6322 16.5163C31.0263 16.9488 31.2233 17.4918 31.2233 18.1454C31.2233 19.1162 30.8437 19.8803 30.0844 20.4377C29.3347 20.9856 28.4264 21.2595 27.3595 21.2595ZM31.7683 21L36.2088 10.7926H37.7802L42.1775 21H40.1014L39.1499 18.6644H34.7238L33.8011 21H31.7683ZM35.3437 17.1074H38.5155L36.944 12.9552L35.3437 17.1074ZM43.1875 21V10.7926H51.5062V21H49.6896V12.3785H45.004V21H43.1875ZM53.761 21V10.7926H55.5776V18.2607H55.6208L60.4074 10.7926H62.3681V21H60.5515V13.5896H60.5227L55.7506 21H53.761ZM73.3674 12.0902L71.9833 13.1859C71.7335 12.8399 71.3922 12.5804 70.9597 12.4074C70.5368 12.2247 70.1043 12.1334 69.6622 12.1334C68.6241 12.1334 67.7735 12.489 67.1103 13.2003C66.4568 13.9115 66.13 14.8006 66.13 15.8675C66.13 16.9824 66.4423 17.8907 67.0671 18.5923C67.7014 19.2844 68.5424 19.6304 69.5901 19.6304C70.6666 19.6304 71.4932 19.2363 72.0699 18.4482L73.526 19.4718C72.5745 20.6636 71.2577 21.2595 69.5757 21.2595C67.9802 21.2595 66.673 20.7597 65.6542 19.7601C64.6354 18.7509 64.126 17.4534 64.126 15.8675C64.126 14.2624 64.645 12.9744 65.683 12.0037C66.7307 11.0233 68.0571 10.5331 69.6622 10.5331C70.3734 10.5331 71.0703 10.6677 71.7527 10.9368C72.4447 11.1963 72.9829 11.5808 73.3674 12.0902ZM73.4148 21L77.8553 10.7926H79.4268L83.824 21H81.748L80.7964 18.6644H76.3703L75.4476 21H73.4148ZM76.9903 17.1074H80.1621L78.5906 12.9552L76.9903 17.1074ZM86.0368 21V12.3785H82.9083V10.7926H90.9819V12.3785H87.8534V21H86.0368ZM92.1693 21V10.7926H93.9859V14.8439H95.4997C96.6531 14.8439 97.5806 15.0986 98.2822 15.608C98.9935 16.1174 99.3491 16.8863 99.3491 17.9147C99.3491 18.9335 98.9935 19.7025 98.2822 20.2215C97.5806 20.7405 96.6627 21 95.5285 21H92.1693ZM93.9859 19.4718H95.3555C96.7973 19.4718 97.5181 18.9576 97.5181 17.9291C97.5181 17.4197 97.3307 17.0353 96.9559 16.7758C96.581 16.5066 96.0476 16.3721 95.3555 16.3721H93.9859V19.4718ZM109.734 12.0902L108.35 13.1859C108.1 12.8399 107.759 12.5804 107.327 12.4074C106.904 12.2247 106.471 12.1334 106.029 12.1334C104.991 12.1334 104.14 12.489 103.477 13.2003C102.824 13.9115 102.497 14.8006 102.497 15.8675C102.497 16.9824 102.809 17.8907 103.434 18.5923C104.068 19.2844 104.909 19.6304 105.957 19.6304C107.033 19.6304 107.86 19.2363 108.437 18.4482L109.893 19.4718C108.941 20.6636 107.624 21.2595 105.942 21.2595C104.347 21.2595 103.04 20.7597 102.021 19.7601C101.002 18.7509 100.493 17.4534 100.493 15.8675C100.493 14.2624 101.012 12.9744 102.05 12.0037C103.098 11.0233 104.424 10.5331 106.029 10.5331C106.74 10.5331 107.437 10.6677 108.119 10.9368C108.812 11.1963 109.35 11.5808 109.734 12.0902ZM110.171 21L112.91 16.6748C112.199 16.4922 111.646 16.1558 111.252 15.6656C110.858 15.1755 110.661 14.5603 110.661 13.8202C110.661 12.7822 110.997 12.0181 111.67 11.5279C112.353 11.0377 113.299 10.7926 114.51 10.7926H117.855V21H116.039V16.9199H114.77L112.377 21H110.171ZM114.683 15.435H116.039V12.3208H114.626C113.184 12.3208 112.463 12.8351 112.463 13.8635C112.463 14.3921 112.66 14.7862 113.054 15.0457C113.448 15.3052 113.991 15.435 114.683 15.435Z" fill="#525862"/>
</svg>
