<svg width="19" height="19" viewBox="0 0 19 19" fill="none" xmlns="http://www.w3.org/2000/svg">
<path fill-rule="evenodd" clip-rule="evenodd" d="M0.000854492 1.18748C0.000854492 0.531653 0.532508 0 1.18834 0H17.8126C18.4684 0 19.0001 0.531653 19.0001 1.18748C19.0001 1.84331 18.4684 2.37496 17.8126 2.37496H1.18834C0.532509 2.37496 0.000854492 1.84331 0.000854492 1.18748ZM0 9.50048C0 8.84466 0.531653 8.313 1.18748 8.313H17.8117C18.4676 8.313 18.9992 8.84466 18.9992 9.50048C18.9992 10.1563 18.4676 10.688 17.8117 10.688H1.18748C0.531654 10.688 0 10.1563 0 9.50048ZM1.18748 16.625C0.531653 16.625 0 17.1567 0 17.8125C0 18.4683 0.531654 19 1.18748 19H17.8117C18.4676 19 18.9992 18.4683 18.9992 17.8125C18.9992 17.1567 18.4676 16.625 17.8117 16.625H1.18748Z" fill="#525862"/>
</svg>
