<svg width="19" height="19" viewBox="0 0 19 19" fill="none" xmlns="http://www.w3.org/2000/svg">
<path fill-rule="evenodd" clip-rule="evenodd" d="M0.348679 16.96C-0.116226 17.4249 -0.116226 18.1787 0.348679 18.6436C0.813583 19.1085 1.56737 19.1085 2.03227 18.6436L9.49614 11.1797L16.96 18.6436C17.4249 19.1085 18.1787 19.1085 18.6436 18.6436C19.1085 18.1787 19.1085 17.4249 18.6436 16.96L11.1797 9.49614L18.6436 2.03227C19.1085 1.56736 19.1085 0.813594 18.6436 0.348683C18.1787 -0.116227 17.4249 -0.116227 16.96 0.348681L9.49614 7.81255L2.03227 0.348681C1.56737 -0.116227 0.813583 -0.116227 0.348679 0.348683C-0.116226 0.813594 -0.116226 1.56736 0.348679 2.03227L7.81255 9.49614L0.348679 16.96Z" fill="#525862"/>
</svg>
