<svg width="32" height="32" viewBox="0 0 32 32" fill="none" xmlns="http://www.w3.org/2000/svg">
<path d="M15.8609 0.762207C13.8512 0.762207 7.73526 0.762207 4.35401 3.85097C2.34048 5.85783 1.3916 8.75764 1.3916 12.9527V15.2384C1.3916 19.4334 2.34048 22.3333 4.37761 24.363C5.39199 25.2887 6.77495 26.0285 8.46558 26.5397L9.00703 26.7028V30.7622C9.00703 31.2384 9.14487 31.2384 9.19057 31.2384C9.28424 31.2384 9.43426 31.2087 9.71908 30.9557C9.78762 30.8879 10.2902 30.3439 12.7348 27.6041L12.9815 27.3275L13.3509 27.3512C14.1695 27.4022 15.0141 27.4289 15.8609 27.4289C17.8706 27.4289 23.9866 27.4289 27.3678 24.3393C29.3806 22.3325 30.3302 19.4327 30.3302 15.2384V12.9527C30.3302 8.75764 29.3814 5.85783 27.3442 3.82811C23.9866 0.762207 17.8706 0.762207 15.8609 0.762207Z" fill="white"/>
<path d="M23.0573 18.9365C22.2113 18.2234 21.8206 18.0078 20.6524 17.3061C20.1658 17.0143 19.424 16.7621 19.0349 16.7621C18.7691 16.7621 18.4508 16.9655 18.2558 17.1605C17.7562 17.6604 17.5925 18.2859 16.7167 18.2859C15.86 18.2859 14.3636 17.4135 13.2898 16.2859C12.1627 15.2116 11.2907 13.7144 11.2907 12.8573C11.2907 11.9811 11.9045 11.8059 12.4041 11.3053C12.5991 11.111 12.8138 10.7925 12.8138 10.5266C12.8138 10.1373 12.5618 9.40664 12.2701 8.91978C11.5687 7.75026 11.3539 7.3594 10.6404 6.51369C10.399 6.22721 10.1241 6.09616 9.83619 6.0954C9.34956 6.09464 8.71063 6.33616 8.27807 6.65845C7.62771 7.14378 6.94766 7.80435 6.76565 8.62721C6.74128 8.73921 6.72681 8.85197 6.72224 8.96473C6.68721 9.82188 7.02381 10.692 7.38707 11.4287C8.24228 13.1651 9.37393 14.8459 10.6053 16.3468C10.9991 16.8268 11.4278 17.2733 11.8718 17.7045C12.3028 18.148 12.7491 18.5769 13.2289 18.9716C14.7291 20.2036 16.4091 21.3358 18.1446 22.1914C18.8742 22.551 19.7332 22.8817 20.5816 22.8573C20.7027 22.8535 20.8237 22.8398 20.9448 22.8131C21.7673 22.6318 22.4275 21.9506 22.9126 21.3C23.2348 20.8672 23.4762 20.2287 23.4754 19.7411C23.4747 19.4531 23.3437 19.1781 23.0573 18.9365ZM23.4754 15.2383C23.0551 15.2383 22.7139 14.8969 22.7139 14.4764V13.7144C22.7139 9.93388 19.6388 6.85731 15.86 6.85731C15.4396 6.85731 15.0985 6.51597 15.0985 6.0954C15.0985 5.67483 15.4396 5.3335 15.86 5.3335C20.4788 5.3335 24.237 9.0935 24.237 13.7144V14.4764C24.237 14.8969 23.8958 15.2383 23.4754 15.2383ZM18.798 13.7144C18.4599 13.7144 18.1507 13.4874 18.0616 13.1445C17.853 12.3438 17.2285 11.7183 16.4312 11.5125C16.0237 11.4066 15.7793 10.9914 15.8844 10.5838C15.9895 10.1769 16.4037 9.93235 16.8127 10.0367C18.1439 10.3819 19.1872 11.4249 19.5352 12.7598C19.6411 13.1674 19.3974 13.5826 18.9907 13.6893C18.926 13.7061 18.8612 13.7144 18.798 13.7144Z" fill="#525862"/>
<path d="M21.1909 14.4762C20.7705 14.4762 20.4293 14.1349 20.4293 13.7143C20.4293 11.2853 18.53 9.28152 16.1053 9.15352C15.6849 9.13143 15.3628 8.77257 15.3849 8.35276C15.4069 7.93219 15.7717 7.60914 16.1852 7.632C19.4195 7.80267 21.9524 10.4747 21.9524 13.7143C21.9524 14.1349 21.6112 14.4762 21.1909 14.4762Z" fill="#525862"/>
<path d="M15.8602 0C12.4332 0 7.09327 0.315429 3.83995 3.28838C1.54009 5.57943 0.629287 8.79314 0.629287 12.9524C0.629287 13.2968 0.627764 13.6808 0.63081 14.0952C0.627764 14.509 0.629287 14.893 0.629287 15.2373C0.629287 19.3966 1.54009 22.6103 3.83995 24.9013C5.07822 26.0328 6.62263 26.7771 8.24472 27.2678V30.7619C8.24472 31.9779 9.04358 32 9.18979 32H9.19665C9.57285 31.9985 9.89803 31.8141 10.224 31.5246C10.3466 31.4156 11.7623 29.837 13.3021 28.1105C14.219 28.1691 15.0902 28.1905 15.8594 28.1905C19.2863 28.1905 24.6255 27.8743 27.8796 24.9013C30.1787 22.611 31.0903 19.3966 31.0903 15.2373C31.0903 14.893 31.0918 14.509 31.0887 14.0945C31.0918 13.68 31.0903 13.2968 31.0903 12.9516C31.0903 8.79238 30.1795 5.57867 27.8796 3.28762C24.6263 0.315428 19.2871 0 15.8602 0ZM28.8064 14.9722V15.2373C28.8064 18.9752 28.0106 21.5223 26.304 23.2465C23.3476 25.9048 17.716 25.9048 15.8594 25.9048C15.2943 25.9048 14.3774 25.904 13.2953 25.8286C12.9945 26.1669 9.76781 29.7775 9.76781 29.7775V25.3105C8.16552 24.9257 6.58227 24.2949 5.41635 23.2472C3.70973 21.5223 2.91392 18.9752 2.91392 15.2373V14.9722C2.91392 14.7048 2.91316 14.416 2.91544 14.0785C2.91316 13.7737 2.91316 13.4857 2.91392 13.2175V12.9524C2.91392 9.21448 3.70973 6.66743 5.41635 4.94324C8.3719 2.28495 14.0043 2.28495 15.8602 2.28495C17.716 2.28495 23.3476 2.28495 26.3032 4.94324C28.0106 6.66743 28.8056 9.21448 28.8056 12.9524V13.2175C28.8056 13.485 28.8064 13.7737 28.8041 14.1112C28.8064 14.4168 28.8064 14.7048 28.8064 14.9722Z" fill="#525862"/>
</svg>
